<svg xmlns="http://www.w3.org/2000/svg" xmlns:xlink="http://www.w3.org/1999/xlink" width="90" zoomAndPan="magnify" viewBox="0 0 67.5 40.499999" height="54" preserveAspectRatio="xMidYMid meet" version="1.0"><defs><clipPath id="fef9b15bbf"><path d="M 36 0.421875 L 38 0.421875 L 38 2 L 36 2 Z M 36 0.421875 " clip-rule="nonzero"/></clipPath><clipPath id="60b393a1bd"><path d="M 35 0.421875 L 37 0.421875 L 37 1 L 35 1 Z M 35 0.421875 " clip-rule="nonzero"/></clipPath><clipPath id="9b59fab62d"><path d="M 14 0.421875 L 53 0.421875 L 53 39.6875 L 14 39.6875 Z M 14 0.421875 " clip-rule="nonzero"/></clipPath><clipPath id="87d47c8153"><path d="M 0.710938 15 L 66.644531 15 L 66.644531 34 L 0.710938 34 Z M 0.710938 15 " clip-rule="nonzero"/></clipPath></defs><path fill="#000000" d="M 53.039062 21.082031 C 53.023438 21.261719 53.148438 21.203125 53.167969 21.230469 C 53.152344 20.921875 53.007812 21.085938 53.039062 21.082031 Z M 53.039062 21.082031 " fill-opacity="1" fill-rule="nonzero"/><path fill="#000000" d="M 52.664062 18.121094 L 52.714844 18.167969 C 52.660156 18.023438 52.601562 17.886719 52.542969 17.75 C 52.589844 17.871094 52.625 17.996094 52.664062 18.121094 Z M 52.664062 18.121094 " fill-opacity="1" fill-rule="nonzero"/><path fill="#000000" d="M 52.167969 15.402344 C 52.132812 15.480469 52.132812 15.578125 52.148438 15.6875 C 52.171875 15.800781 52.210938 15.929688 52.25 16.058594 C 52.269531 16.125 52.296875 16.195312 52.316406 16.265625 L 52.347656 16.367188 C 52.359375 16.402344 52.371094 16.4375 52.375 16.472656 C 52.414062 16.609375 52.441406 16.746094 52.441406 16.867188 L 52.410156 16.957031 L 52.613281 17.148438 C 52.578125 17 52.542969 16.84375 52.496094 16.683594 C 52.453125 16.527344 52.410156 16.363281 52.363281 16.210938 C 52.273438 15.90625 52.191406 15.617188 52.167969 15.402344 Z M 52.167969 15.402344 " fill-opacity="1" fill-rule="nonzero"/><path fill="#000000" d="M 52.167969 13.851562 C 52.144531 13.90625 52.097656 13.835938 52.097656 13.832031 C 52.089844 13.824219 52.128906 13.878906 52.253906 14.195312 C 52.25 14.160156 52.253906 14.148438 52.253906 14.125 C 52.246094 14.097656 52.234375 14.0625 52.222656 14.019531 C 52.203125 13.972656 52.1875 13.917969 52.167969 13.851562 Z M 52.167969 13.851562 " fill-opacity="1" fill-rule="nonzero"/><path fill="#000000" d="M 52.25 14.121094 C 52.347656 14.40625 52.257812 13.917969 52.25 14.121094 Z M 52.25 14.121094 " fill-opacity="1" fill-rule="nonzero"/><path fill="#000000" d="M 51.734375 12.851562 L 51.84375 13.019531 C 51.878906 13.078125 51.914062 13.136719 51.949219 13.191406 C 51.953125 13.144531 51.929688 13.039062 51.914062 12.957031 C 51.894531 12.875 51.882812 12.820312 51.925781 12.875 C 51.734375 12.511719 51.722656 12.609375 51.734375 12.851562 Z M 51.734375 12.851562 " fill-opacity="1" fill-rule="nonzero"/><path fill="#000000" d="M 51.453125 12.570312 C 51.488281 12.628906 51.527344 12.683594 51.558594 12.746094 C 51.566406 12.703125 51.554688 12.652344 51.453125 12.570312 Z M 51.453125 12.570312 " fill-opacity="1" fill-rule="nonzero"/><path fill="#000000" d="M 51.78125 13.113281 C 51.710938 12.992188 51.632812 12.867188 51.558594 12.742188 C 51.550781 12.804688 51.488281 12.835938 51.65625 12.914062 C 51.585938 12.90625 51.675781 12.960938 51.78125 13.113281 Z M 51.78125 13.113281 " fill-opacity="1" fill-rule="nonzero"/><path fill="#000000" d="M 51.835938 13.351562 C 51.855469 13.464844 51.878906 13.585938 51.878906 13.640625 C 51.875 13.691406 51.84375 13.675781 51.738281 13.503906 C 51.878906 13.847656 51.972656 13.980469 51.996094 13.945312 C 52.007812 13.925781 52 13.863281 51.976562 13.761719 C 51.957031 13.664062 51.914062 13.523438 51.835938 13.351562 Z M 51.835938 13.351562 " fill-opacity="1" fill-rule="nonzero"/><path fill="#000000" d="M 51.921875 15.324219 C 51.929688 15.421875 51.929688 15.515625 51.933594 15.613281 L 52.058594 15.832031 C 52.027344 15.777344 52.007812 15.640625 51.992188 15.523438 C 51.972656 15.40625 51.953125 15.304688 51.921875 15.324219 Z M 51.921875 15.324219 " fill-opacity="1" fill-rule="nonzero"/><path fill="#000000" d="M 50.773438 10.605469 C 50.722656 10.605469 50.734375 10.773438 50.699219 10.828125 C 50.761719 10.902344 50.820312 10.980469 50.878906 11.058594 C 50.839844 10.914062 50.726562 10.652344 50.773438 10.605469 Z M 50.773438 10.605469 " fill-opacity="1" fill-rule="nonzero"/><path fill="#000000" d="M 50.699219 10.828125 C 50.601562 10.714844 50.515625 10.605469 50.421875 10.492188 C 50.601562 10.828125 50.667969 10.875 50.699219 10.828125 Z M 50.699219 10.828125 " fill-opacity="1" fill-rule="nonzero"/><path fill="#000000" d="M 51.214844 12.597656 L 51.320312 12.742188 L 51.425781 12.890625 C 51.492188 12.988281 51.5625 13.085938 51.632812 13.183594 C 51.476562 12.945312 51.324219 12.707031 51.160156 12.476562 Z M 51.214844 12.597656 " fill-opacity="1" fill-rule="nonzero"/><path fill="#000000" d="M 49.90625 9.1875 C 49.980469 9.238281 50.054688 9.289062 50.128906 9.335938 L 49.941406 9.195312 L 49.753906 9.058594 Z M 49.90625 9.1875 " fill-opacity="1" fill-rule="nonzero"/><path fill="#000000" d="M 49.25 8.304688 C 49.425781 8.398438 49.210938 8.019531 49.371094 8.140625 C 49.320312 8.082031 49.273438 8.027344 49.222656 7.980469 C 49.171875 7.929688 49.117188 7.882812 49.066406 7.84375 C 48.960938 7.761719 48.863281 7.6875 48.761719 7.617188 C 48.855469 7.699219 48.933594 7.796875 49.019531 7.90625 C 49.101562 8.019531 49.175781 8.148438 49.25 8.304688 Z M 49.25 8.304688 " fill-opacity="1" fill-rule="nonzero"/><path fill="#000000" d="M 48.4375 7.386719 C 48.53125 7.46875 48.640625 7.539062 48.761719 7.617188 C 48.660156 7.535156 48.554688 7.453125 48.4375 7.386719 Z M 48.4375 7.386719 " fill-opacity="1" fill-rule="nonzero"/><path fill="#000000" d="M 50.0625 9.855469 C 50.0625 9.8125 50.09375 9.71875 49.984375 9.5 L 49.972656 9.710938 C 50 9.753906 50.03125 9.804688 50.0625 9.855469 Z M 50.0625 9.855469 " fill-opacity="1" fill-rule="nonzero"/><path fill="#000000" d="M 49.972656 9.71875 L 49.972656 9.714844 C 49.875 9.558594 49.808594 9.449219 49.777344 9.402344 C 49.800781 9.441406 49.863281 9.539062 49.972656 9.71875 Z M 49.972656 9.71875 " fill-opacity="1" fill-rule="nonzero"/><path fill="#000000" d="M 50.085938 9.890625 C 50.078125 9.878906 50.070312 9.867188 50.0625 9.855469 C 50.0625 9.875 50.0625 9.886719 50.085938 9.890625 Z M 50.085938 9.890625 " fill-opacity="1" fill-rule="nonzero"/><path fill="#000000" d="M 50.84375 11.542969 C 50.757812 11.445312 50.632812 11.292969 50.554688 11.222656 C 50.472656 11.15625 50.429688 11.171875 50.5 11.417969 C 50.578125 11.476562 50.597656 11.433594 50.628906 11.414062 C 50.648438 11.402344 50.667969 11.402344 50.703125 11.414062 C 50.734375 11.429688 50.777344 11.46875 50.84375 11.542969 Z M 50.84375 11.542969 " fill-opacity="1" fill-rule="nonzero"/><path fill="#000000" d="M 50.0625 10.148438 C 50.132812 10.285156 50.199219 10.417969 50.265625 10.554688 C 50.289062 10.53125 50.289062 10.4375 50.382812 10.523438 C 50.277344 10.398438 50.171875 10.273438 50.0625 10.148438 Z M 50.0625 10.148438 " fill-opacity="1" fill-rule="nonzero"/><path fill="#000000" d="M 49.910156 9.984375 L 50.0625 10.148438 L 49.984375 10.003906 Z M 49.910156 9.984375 " fill-opacity="1" fill-rule="nonzero"/><path fill="#000000" d="M 48.847656 8.066406 C 48.765625 8.003906 48.691406 7.933594 48.613281 7.855469 C 48.535156 7.777344 48.457031 7.691406 48.375 7.601562 C 48.449219 7.710938 48.53125 7.816406 48.609375 7.921875 C 48.6875 8.027344 48.765625 8.132812 48.847656 8.230469 C 48.875 8.234375 48.917969 8.246094 48.933594 8.230469 C 48.949219 8.21875 48.9375 8.171875 48.847656 8.066406 Z M 48.847656 8.066406 " fill-opacity="1" fill-rule="nonzero"/><path fill="#000000" d="M 49.40625 8.863281 C 49.398438 8.851562 49.386719 8.839844 49.378906 8.832031 C 49.382812 8.859375 49.394531 8.878906 49.40625 8.863281 Z M 49.40625 8.863281 " fill-opacity="1" fill-rule="nonzero"/><path fill="#000000" d="M 46.71875 5.878906 C 46.726562 5.890625 46.726562 5.90625 46.730469 5.921875 C 46.738281 5.917969 46.746094 5.914062 46.753906 5.910156 Z M 46.71875 5.878906 " fill-opacity="1" fill-rule="nonzero"/><path fill="#000000" d="M 48.855469 8.28125 C 48.957031 8.453125 49.050781 8.527344 49.148438 8.589844 C 49.050781 8.484375 48.949219 8.363281 48.84375 8.230469 C 48.824219 8.230469 48.8125 8.238281 48.855469 8.28125 Z M 48.855469 8.28125 " fill-opacity="1" fill-rule="nonzero"/><path fill="#000000" d="M 47.945312 6.921875 C 47.972656 6.96875 48 7.015625 48.027344 7.066406 C 48.058594 7.117188 48.089844 7.167969 48.125 7.222656 C 48.101562 7.171875 48.074219 7.097656 48.039062 7.039062 C 48.003906 6.972656 47.96875 6.925781 47.945312 6.921875 Z M 47.945312 6.921875 " fill-opacity="1" fill-rule="nonzero"/><path fill="#000000" d="M 49.363281 8.757812 C 49.371094 8.765625 49.378906 8.773438 49.382812 8.777344 C 49.371094 8.710938 49.363281 8.726562 49.363281 8.757812 Z M 49.363281 8.757812 " fill-opacity="1" fill-rule="nonzero"/><path fill="#000000" d="M 49.363281 8.757812 C 49.289062 8.6875 49.21875 8.640625 49.148438 8.59375 C 49.226562 8.683594 49.304688 8.765625 49.375 8.832031 C 49.367188 8.804688 49.363281 8.777344 49.363281 8.757812 Z M 49.363281 8.757812 " fill-opacity="1" fill-rule="nonzero"/><path fill="#000000" d="M 45.652344 6 C 45.703125 5.964844 45.84375 6.007812 45.992188 6.113281 C 46.070312 6.164062 46.152344 6.226562 46.230469 6.304688 C 46.304688 6.382812 46.375 6.46875 46.433594 6.566406 C 46.523438 6.625 46.597656 6.636719 46.652344 6.621094 C 46.703125 6.605469 46.746094 6.554688 46.769531 6.488281 C 46.816406 6.34375 46.796875 6.125 46.726562 5.917969 C 46.683594 5.949219 46.65625 5.976562 46.273438 5.730469 C 46.3125 5.808594 46.472656 5.996094 46.574219 6.148438 C 46.679688 6.304688 46.726562 6.414062 46.554688 6.324219 C 46.433594 6.238281 46.359375 6.171875 46.304688 6.117188 C 46.246094 6.0625 46.214844 6.027344 46.191406 5.988281 C 46.148438 5.914062 46.140625 5.855469 46.054688 5.738281 C 46.097656 5.871094 45.921875 5.789062 45.730469 5.707031 C 45.542969 5.621094 45.328125 5.546875 45.3125 5.667969 C 45.460938 5.75 45.601562 5.839844 45.746094 5.933594 C 45.742188 5.964844 45.566406 5.886719 45.652344 6 Z M 45.652344 6 " fill-opacity="1" fill-rule="nonzero"/><path fill="#000000" d="M 47.339844 6.523438 L 47.480469 6.644531 C 47.414062 6.5625 47.363281 6.484375 47.308594 6.394531 C 47.253906 6.308594 47.199219 6.207031 47.132812 6.078125 C 46.871094 5.90625 46.792969 5.894531 46.753906 5.910156 C 46.972656 6.121094 47.1875 6.335938 47.394531 6.554688 Z M 47.339844 6.523438 " fill-opacity="1" fill-rule="nonzero"/><path fill="#000000" d="M 48.050781 7.253906 C 48.003906 7.246094 47.945312 7.222656 47.886719 7.195312 C 47.832031 7.167969 47.773438 7.140625 47.722656 7.121094 C 47.625 7.085938 47.5625 7.085938 47.601562 7.230469 C 47.648438 7.277344 47.6875 7.316406 47.722656 7.351562 C 47.757812 7.382812 47.785156 7.410156 47.8125 7.429688 C 47.863281 7.472656 47.902344 7.492188 47.9375 7.507812 C 48.003906 7.539062 48.0625 7.542969 48.1875 7.644531 C 47.886719 7.328125 47.941406 7.363281 48.027344 7.414062 C 48.109375 7.464844 48.222656 7.527344 48.042969 7.265625 C 48.175781 7.378906 48.28125 7.492188 48.378906 7.601562 C 48.292969 7.472656 48.199219 7.347656 48.125 7.222656 C 48.125 7.230469 48.128906 7.234375 48.128906 7.242188 L 48.132812 7.246094 C 48.132812 7.246094 48.132812 7.246094 48.128906 7.246094 C 48.144531 7.285156 48.144531 7.300781 48.125 7.261719 C 48.121094 7.261719 48.113281 7.253906 48.109375 7.25 C 48.09375 7.257812 48.070312 7.257812 48.050781 7.253906 C 47.902344 7.042969 48.046875 7.199219 48.109375 7.25 C 48.117188 7.246094 48.125 7.25 48.128906 7.246094 C 48.128906 7.246094 48.128906 7.242188 48.128906 7.242188 C 48.078125 7.191406 48.027344 7.136719 47.972656 7.089844 L 47.808594 6.941406 L 47.648438 6.792969 L 47.484375 6.648438 C 47.597656 6.789062 47.757812 6.953125 48.050781 7.253906 Z M 48.050781 7.253906 " fill-opacity="1" fill-rule="nonzero"/><path fill="#000000" d="M 50.042969 11.140625 C 50.039062 11.113281 50.050781 11.113281 50.058594 11.105469 C 50.015625 11.0625 49.996094 11.050781 50.042969 11.140625 Z M 50.042969 11.140625 " fill-opacity="1" fill-rule="nonzero"/><path fill="#000000" d="M 49.941406 10.796875 C 49.988281 10.84375 50.054688 10.867188 50.140625 11.046875 C 50.195312 11.21875 50.089844 11.074219 50.058594 11.105469 C 50.144531 11.191406 50.339844 11.433594 50.210938 11.070312 L 50.167969 11.027344 C 50.136719 10.945312 50.109375 10.855469 50.082031 10.769531 C 50.054688 10.679688 50.03125 10.59375 50.015625 10.519531 C 49.980469 10.367188 49.964844 10.265625 49.988281 10.285156 C 49.941406 10.429688 49.917969 10.546875 49.941406 10.796875 Z M 49.941406 10.796875 " fill-opacity="1" fill-rule="nonzero"/><path fill="#000000" d="M 49.054688 8.988281 C 48.898438 8.800781 48.734375 8.628906 48.570312 8.449219 L 48.707031 8.804688 L 48.746094 8.75 C 48.804688 8.835938 48.84375 8.894531 48.878906 8.929688 C 48.910156 8.96875 48.933594 8.984375 48.957031 8.992188 C 48.996094 9.007812 49.015625 8.980469 49.054688 8.988281 Z M 49.054688 8.988281 " fill-opacity="1" fill-rule="nonzero"/><path fill="#000000" d="M 46.699219 5.773438 L 46.859375 5.742188 L 46.75 5.703125 L 46.636719 5.667969 L 46.417969 5.597656 Z M 46.699219 5.773438 " fill-opacity="1" fill-rule="nonzero"/><path fill="#000000" d="M 45.96875 5.160156 L 46.066406 5.089844 C 45.988281 5.054688 45.90625 5.019531 45.828125 4.984375 Z M 45.96875 5.160156 " fill-opacity="1" fill-rule="nonzero"/><path fill="#000000" d="M 17.34375 28.71875 L 17.46875 28.878906 C 17.414062 28.800781 17.375 28.75 17.34375 28.71875 Z M 17.34375 28.71875 " fill-opacity="1" fill-rule="nonzero"/><path fill="#000000" d="M 16.726562 27.410156 L 16.65625 27.398438 C 16.714844 27.445312 16.75 27.464844 16.726562 27.410156 Z M 16.726562 27.410156 " fill-opacity="1" fill-rule="nonzero"/><path fill="#000000" d="M 23.964844 3.113281 C 23.640625 3.167969 23.25 3.210938 23.347656 3.304688 L 23.496094 3.363281 C 23.671875 3.230469 23.828125 3.164062 23.964844 3.113281 Z M 23.964844 3.113281 " fill-opacity="1" fill-rule="nonzero"/><path fill="#000000" d="M 15.160156 15.640625 C 15.179688 15.617188 15.195312 15.589844 15.214844 15.5625 C 15.191406 15.480469 15.171875 15.402344 15.152344 15.332031 C 15.15625 15.425781 15.152344 15.527344 15.160156 15.640625 Z M 15.160156 15.640625 " fill-opacity="1" fill-rule="nonzero"/><path fill="#000000" d="M 15.617188 15.964844 C 15.589844 16.027344 15.558594 16.082031 15.53125 16.144531 L 15.453125 16.324219 C 15.496094 16.246094 15.546875 16.128906 15.617188 15.964844 Z M 15.617188 15.964844 " fill-opacity="1" fill-rule="nonzero"/><path fill="#000000" d="M 22.507812 34.597656 C 22.59375 34.609375 22.683594 34.621094 22.769531 34.632812 C 22.695312 34.578125 22.648438 34.550781 22.617188 34.53125 C 22.582031 34.515625 22.566406 34.515625 22.554688 34.523438 C 22.53125 34.535156 22.539062 34.578125 22.507812 34.597656 Z M 22.507812 34.597656 " fill-opacity="1" fill-rule="nonzero"/><g clip-path="url(#fef9b15bbf)"><path fill="#000000" d="M 37.199219 1.070312 C 37.070312 1.019531 36.953125 0.980469 36.84375 0.949219 C 36.738281 0.921875 36.636719 0.898438 36.546875 0.878906 C 36.699219 0.945312 36.839844 1.011719 36.949219 1.054688 C 37.0625 1.097656 37.148438 1.117188 37.199219 1.070312 Z M 37.199219 1.070312 " fill-opacity="1" fill-rule="nonzero"/></g><path fill="#000000" d="M 15.878906 28.796875 C 15.957031 28.90625 16.007812 28.945312 16.03125 28.929688 C 15.953125 28.816406 15.898438 28.757812 15.878906 28.796875 Z M 15.878906 28.796875 " fill-opacity="1" fill-rule="nonzero"/><g clip-path="url(#60b393a1bd)"><path fill="#000000" d="M 35.765625 0.777344 C 35.8125 0.792969 35.859375 0.804688 35.90625 0.824219 C 36.007812 0.828125 36.105469 0.828125 36.207031 0.839844 C 36.3125 0.851562 36.425781 0.859375 36.542969 0.882812 C 36.425781 0.835938 36.300781 0.800781 36.171875 0.777344 C 36.109375 0.765625 36.039062 0.757812 35.96875 0.753906 C 35.90625 0.753906 35.835938 0.757812 35.765625 0.777344 Z M 35.765625 0.777344 " fill-opacity="1" fill-rule="nonzero"/></g><path fill="#000000" d="M 48 31.125 C 48.015625 31.109375 48.03125 31.089844 48.050781 31.082031 C 48.039062 31.066406 48.023438 31.089844 48 31.125 Z M 48 31.125 " fill-opacity="1" fill-rule="nonzero"/><path fill="#000000" d="M 52.578125 23.789062 C 52.566406 23.878906 52.542969 24.019531 52.515625 24.152344 C 52.539062 24.089844 52.558594 23.976562 52.578125 23.789062 Z M 52.578125 23.789062 " fill-opacity="1" fill-rule="nonzero"/><path fill="#000000" d="M 42.808594 2.96875 C 42.996094 3.058594 42.847656 2.96875 42.808594 2.96875 Z M 42.808594 2.96875 " fill-opacity="1" fill-rule="nonzero"/><path fill="#000000" d="M 43.410156 3.886719 C 43.367188 3.875 43.328125 3.875 43.308594 3.898438 C 43.339844 3.878906 43.371094 3.875 43.410156 3.886719 Z M 43.410156 3.886719 " fill-opacity="1" fill-rule="nonzero"/><path fill="#000000" d="M 33.738281 1.425781 C 33.730469 1.425781 33.730469 1.425781 33.722656 1.425781 C 33.777344 1.449219 33.769531 1.445312 33.738281 1.425781 Z M 33.738281 1.425781 " fill-opacity="1" fill-rule="nonzero"/><path fill="#000000" d="M 43.050781 3.164062 C 42.992188 3.113281 42.921875 3.0625 42.839844 3.007812 C 42.875 3.035156 42.9375 3.085938 43.050781 3.164062 Z M 43.050781 3.164062 " fill-opacity="1" fill-rule="nonzero"/><path fill="#000000" d="M 43.042969 3.09375 C 43.097656 3.136719 43.148438 3.164062 43.191406 3.191406 C 43.222656 3.1875 43.210938 3.164062 43.042969 3.09375 Z M 43.042969 3.09375 " fill-opacity="1" fill-rule="nonzero"/><path fill="#000000" d="M 42.558594 2.84375 C 42.660156 2.898438 42.753906 2.949219 42.839844 3.007812 C 42.808594 2.980469 42.796875 2.96875 42.808594 2.96875 C 42.753906 2.941406 42.679688 2.902344 42.558594 2.84375 Z M 42.558594 2.84375 " fill-opacity="1" fill-rule="nonzero"/><path fill="#000000" d="M 34.96875 38.660156 C 34.980469 38.664062 34.996094 38.664062 35.007812 38.667969 C 35.199219 38.597656 35.113281 38.613281 34.96875 38.660156 Z M 34.96875 38.660156 " fill-opacity="1" fill-rule="nonzero"/><path fill="#000000" d="M 20.664062 7.183594 C 20.671875 7.175781 20.671875 7.167969 20.675781 7.160156 C 20.667969 7.167969 20.65625 7.171875 20.652344 7.179688 Z M 20.664062 7.183594 " fill-opacity="1" fill-rule="nonzero"/><path fill="#000000" d="M 20.257812 7.726562 C 20.300781 7.570312 20.355469 7.464844 20.421875 7.378906 C 20.484375 7.296875 20.566406 7.238281 20.65625 7.175781 C 20.515625 7.140625 20.375 7.109375 20.238281 7.074219 C 20.238281 7.296875 20.246094 7.511719 20.257812 7.726562 Z M 20.257812 7.726562 " fill-opacity="1" fill-rule="nonzero"/><g clip-path="url(#9b59fab62d)"><path fill="#000000" d="M 19.277344 31.585938 L 19.171875 31.371094 L 19.074219 31.148438 C 19.320312 31.320312 19.5 31.484375 19.589844 31.558594 C 19.636719 31.59375 19.664062 31.609375 19.671875 31.585938 C 19.675781 31.5625 19.660156 31.5 19.625 31.394531 C 19.535156 31.441406 19.417969 31.378906 19.289062 31.261719 C 19.160156 31.140625 19.015625 30.964844 18.882812 30.78125 C 18.742188 30.601562 18.613281 30.414062 18.488281 30.285156 C 18.367188 30.15625 18.257812 30.082031 18.164062 30.121094 C 18.128906 30.019531 18.097656 29.917969 18.066406 29.816406 C 18.109375 29.894531 18.136719 29.894531 18.179688 29.972656 C 18.140625 29.816406 18.089844 29.730469 18.03125 29.664062 C 18.003906 29.636719 17.972656 29.609375 17.9375 29.589844 C 17.90625 29.570312 17.871094 29.554688 17.835938 29.539062 C 17.691406 29.464844 17.519531 29.386719 17.355469 29.027344 C 17.328125 28.960938 17.304688 28.902344 17.292969 28.851562 C 17.273438 28.796875 17.265625 28.753906 17.261719 28.722656 C 17.253906 28.660156 17.277344 28.648438 17.34375 28.71875 C 17.28125 28.640625 17.21875 28.554688 17.15625 28.476562 L 16.976562 28.222656 C 16.941406 28.140625 16.945312 28.101562 16.964844 28.105469 C 16.984375 28.109375 17.023438 28.148438 17.058594 28.230469 C 16.914062 27.957031 16.777344 27.679688 16.644531 27.398438 L 16.65625 27.402344 C 16.601562 27.355469 16.527344 27.269531 16.449219 27.179688 C 16.375 27.09375 16.296875 27.003906 16.253906 26.9375 C 16.222656 26.695312 16.335938 27.035156 16.359375 26.960938 C 16.265625 26.8125 16.171875 26.660156 16.085938 26.507812 C 16.097656 26.390625 16.164062 26.429688 16.242188 26.53125 C 16.316406 26.636719 16.40625 26.8125 16.464844 26.980469 C 16.511719 26.832031 16.523438 26.734375 16.507812 26.660156 C 16.488281 26.582031 16.449219 26.523438 16.398438 26.449219 C 16.347656 26.375 16.289062 26.285156 16.230469 26.144531 C 16.199219 26.078125 16.175781 25.996094 16.15625 25.902344 C 16.136719 25.804688 16.117188 25.691406 16.105469 25.5625 C 16.167969 25.707031 16.238281 25.855469 16.300781 26.003906 C 16.332031 25.914062 16.339844 25.824219 16.339844 25.734375 C 16.335938 25.644531 16.320312 25.554688 16.308594 25.453125 C 16.289062 25.355469 16.269531 25.25 16.253906 25.132812 C 16.238281 25.019531 16.226562 24.894531 16.226562 24.753906 C 16.214844 24.789062 16.210938 24.878906 16.195312 24.984375 C 16.191406 25.035156 16.1875 25.089844 16.175781 25.148438 C 16.167969 25.203125 16.164062 25.257812 16.15625 25.308594 C 16.121094 25.515625 16.0625 25.636719 15.933594 25.386719 C 15.917969 25.226562 15.875 25.027344 15.722656 24.753906 C 15.789062 24.734375 15.800781 24.65625 15.773438 24.539062 C 15.765625 24.480469 15.75 24.410156 15.726562 24.335938 C 15.707031 24.257812 15.6875 24.171875 15.664062 24.085938 L 15.851562 24.070312 C 15.820312 23.976562 15.789062 23.914062 15.757812 23.859375 C 15.730469 23.808594 15.703125 23.773438 15.675781 23.742188 C 15.625 23.683594 15.570312 23.640625 15.503906 23.535156 C 15.449219 23.09375 15.578125 22.984375 15.683594 22.863281 C 15.652344 22.515625 15.609375 22.640625 15.558594 22.753906 C 15.507812 22.867188 15.449219 22.964844 15.375 22.554688 C 15.375 22.410156 15.367188 22.269531 15.355469 22.140625 C 15.34375 22.007812 15.324219 21.878906 15.300781 21.75 C 15.257812 21.488281 15.1875 21.210938 15.121094 20.859375 C 15.171875 20.441406 15.234375 20.929688 15.285156 20.777344 C 15.234375 20.65625 15.1875 20.535156 15.132812 20.414062 C 15.136719 20.324219 15.179688 20.355469 15.203125 20.367188 C 15.1875 20.289062 15.167969 20.25 15.148438 20.226562 C 15.128906 20.203125 15.105469 20.191406 15.082031 20.179688 C 15.039062 20.148438 14.988281 20.097656 14.96875 19.855469 C 14.917969 19.820312 14.917969 19.738281 14.933594 19.628906 C 14.941406 19.574219 14.957031 19.511719 14.976562 19.445312 C 14.988281 19.410156 14.996094 19.375 15.007812 19.339844 C 15.015625 19.300781 15.03125 19.265625 15.039062 19.230469 C 15.128906 18.921875 15.226562 18.5625 15.144531 18.25 C 15.214844 18.109375 15.25 18.335938 15.328125 18.296875 C 15.292969 17.878906 15.296875 17.699219 15.285156 17.539062 C 15.277344 17.457031 15.273438 17.378906 15.257812 17.277344 C 15.253906 17.230469 15.246094 17.171875 15.238281 17.105469 C 15.234375 17.070312 15.230469 17.039062 15.226562 16.996094 C 15.222656 16.960938 15.21875 16.917969 15.210938 16.871094 L 15.328125 16.597656 C 15.363281 16.507812 15.40625 16.414062 15.449219 16.324219 C 15.332031 16.519531 15.265625 16.476562 15.222656 16.316406 C 15.203125 16.242188 15.1875 16.132812 15.175781 16.011719 C 15.164062 15.894531 15.160156 15.761719 15.160156 15.636719 C 15.058594 15.769531 14.964844 15.882812 14.917969 15.96875 L 14.964844 15.574219 C 14.976562 15.445312 15 15.3125 15.015625 15.183594 C 15.070312 15.097656 15.113281 15.191406 15.15625 15.335938 C 15.15625 15.277344 15.152344 15.230469 15.148438 15.183594 C 15.21875 15.058594 15.269531 15.039062 15.308594 15.078125 C 15.347656 15.113281 15.378906 15.210938 15.402344 15.324219 C 15.339844 15.402344 15.28125 15.484375 15.214844 15.566406 C 15.28125 15.78125 15.359375 15.980469 15.476562 15.96875 C 15.464844 15.914062 15.472656 15.816406 15.484375 15.710938 C 15.503906 15.769531 15.523438 15.808594 15.546875 15.785156 C 15.574219 15.765625 15.550781 15.679688 15.535156 15.542969 L 15.78125 15.429688 L 15.714844 15.371094 C 15.84375 15.0625 15.984375 14.757812 16.128906 14.460938 C 16.136719 14.273438 16.140625 14.09375 16.140625 13.90625 C 16.144531 13.8125 16.148438 13.71875 16.15625 13.625 C 16.160156 13.527344 16.167969 13.429688 16.179688 13.328125 C 16.191406 13.230469 16.203125 13.125 16.21875 13.015625 C 16.238281 12.910156 16.261719 12.796875 16.289062 12.683594 C 16.300781 12.628906 16.3125 12.566406 16.332031 12.507812 C 16.347656 12.445312 16.367188 12.386719 16.386719 12.324219 C 16.425781 12.199219 16.46875 12.070312 16.527344 11.933594 C 16.535156 12.257812 16.722656 12.097656 16.878906 12.195312 C 16.800781 12.242188 16.742188 12.316406 16.695312 12.414062 C 16.648438 12.511719 16.609375 12.625 16.578125 12.75 C 16.542969 12.871094 16.511719 13.007812 16.472656 13.140625 C 16.4375 13.28125 16.386719 13.417969 16.324219 13.546875 C 16.460938 13.273438 16.511719 13.367188 16.511719 13.449219 C 16.550781 13.28125 16.585938 13.109375 16.632812 12.9375 L 16.695312 12.679688 L 16.765625 12.425781 C 16.828125 12.464844 16.878906 12.429688 16.929688 12.351562 C 16.984375 12.273438 17.050781 12.164062 17.136719 12.054688 C 16.960938 12.082031 17 11.882812 17.113281 11.632812 C 17.140625 11.570312 17.171875 11.5 17.203125 11.433594 C 17.238281 11.367188 17.269531 11.296875 17.304688 11.230469 C 17.339844 11.160156 17.367188 11.09375 17.398438 11.035156 C 17.429688 10.972656 17.453125 10.917969 17.46875 10.863281 C 17.566406 10.890625 17.597656 11.023438 17.324219 11.46875 C 17.441406 11.371094 17.507812 11.269531 17.539062 11.167969 C 17.574219 11.066406 17.589844 10.96875 17.59375 10.867188 C 17.609375 10.660156 17.632812 10.457031 17.859375 10.265625 C 17.792969 10.375 17.746094 10.425781 17.761719 10.492188 C 17.78125 10.417969 17.824219 10.324219 17.878906 10.234375 C 17.933594 10.144531 18 10.050781 18.058594 9.972656 C 18.121094 9.894531 18.179688 9.835938 18.226562 9.804688 C 18.265625 9.773438 18.292969 9.773438 18.285156 9.820312 L 18.214844 9.925781 C 18.464844 9.585938 18.84375 9.070312 19.171875 8.621094 C 19.25 8.507812 19.332031 8.402344 19.402344 8.296875 C 19.433594 8.246094 19.46875 8.199219 19.5 8.148438 C 19.527344 8.101562 19.558594 8.058594 19.582031 8.015625 C 19.683594 7.847656 19.738281 7.714844 19.714844 7.648438 C 19.746094 7.667969 19.859375 7.933594 19.863281 8.003906 C 19.992188 7.449219 20.152344 6.890625 20.339844 6.328125 C 20.363281 6.453125 20.558594 6.515625 20.691406 6.625 C 20.757812 6.679688 20.808594 6.742188 20.816406 6.824219 C 20.820312 6.871094 20.8125 6.917969 20.792969 6.96875 C 20.773438 7.027344 20.738281 7.089844 20.683594 7.160156 C 20.769531 7.101562 20.855469 7.035156 20.960938 6.941406 C 21.066406 6.847656 21.179688 6.726562 21.316406 6.558594 C 21.253906 6.59375 21.140625 6.59375 21.054688 6.566406 C 20.972656 6.542969 20.917969 6.488281 20.980469 6.417969 C 21.253906 6.335938 21.34375 6.296875 21.441406 6.253906 C 21.488281 6.230469 21.539062 6.203125 21.617188 6.167969 C 21.695312 6.128906 21.796875 6.082031 21.953125 6.027344 C 21.855469 6.074219 21.800781 5.996094 21.804688 5.882812 C 21.804688 5.769531 21.863281 5.617188 21.996094 5.519531 C 21.984375 5.589844 22.21875 5.761719 22.148438 5.859375 C 22.21875 5.738281 22.296875 5.613281 22.371094 5.484375 C 22.445312 5.359375 22.523438 5.234375 22.601562 5.113281 C 22.46875 5.28125 22.738281 5.355469 22.9375 5.328125 C 22.882812 5.324219 23.027344 5.226562 23.203125 5.113281 C 23.289062 5.054688 23.390625 4.996094 23.476562 4.941406 C 23.558594 4.886719 23.632812 4.835938 23.671875 4.800781 C 23.5625 4.835938 23.453125 4.878906 23.347656 4.921875 C 23.445312 4.863281 23.523438 4.804688 23.597656 4.753906 C 23.667969 4.699219 23.722656 4.644531 23.773438 4.585938 C 23.824219 4.535156 23.867188 4.476562 23.902344 4.421875 C 23.941406 4.367188 23.972656 4.316406 24.007812 4.261719 C 24.074219 4.152344 24.140625 4.039062 24.246094 3.933594 C 24.351562 3.828125 24.484375 3.71875 24.695312 3.613281 C 24.628906 3.722656 24.652344 4.105469 25.074219 3.929688 C 25.101562 3.863281 25.144531 3.765625 25.207031 3.640625 C 25.265625 3.515625 25.347656 3.363281 25.449219 3.210938 C 25.5 3.132812 25.554688 3.050781 25.613281 2.972656 C 25.675781 2.894531 25.742188 2.820312 25.8125 2.742188 C 25.882812 2.667969 25.960938 2.59375 26.042969 2.527344 C 26.125 2.460938 26.210938 2.398438 26.300781 2.34375 C 26.363281 2.355469 26.421875 2.363281 26.488281 2.375 C 26.671875 2.265625 26.859375 2.152344 27.054688 2.050781 C 26.980469 2.144531 26.867188 2.265625 26.742188 2.410156 C 26.679688 2.480469 26.613281 2.558594 26.542969 2.632812 C 26.46875 2.710938 26.394531 2.792969 26.320312 2.875 C 26.175781 3.039062 26.027344 3.210938 25.882812 3.355469 C 25.746094 3.511719 25.613281 3.648438 25.507812 3.761719 C 25.675781 3.71875 25.707031 3.738281 25.757812 3.734375 C 25.78125 3.734375 25.808594 3.726562 25.859375 3.707031 C 25.910156 3.6875 25.980469 3.652344 26.101562 3.601562 C 26.199219 3.609375 26.148438 3.667969 26.058594 3.730469 C 25.96875 3.796875 25.839844 3.871094 25.773438 3.90625 L 26.042969 3.792969 L 26.453125 3.640625 L 26.589844 3.59375 L 26.867188 3.496094 C 26.808594 3.414062 27 3.289062 27.195312 3.164062 C 27.394531 3.046875 27.597656 2.933594 27.546875 2.863281 C 27.164062 3.066406 26.789062 3.285156 26.417969 3.507812 C 26.359375 3.429688 26.472656 3.230469 26.714844 3.015625 C 26.953125 2.804688 27.320312 2.582031 27.734375 2.46875 C 27.847656 2.472656 27.839844 2.566406 27.800781 2.671875 C 27.765625 2.773438 27.707031 2.878906 27.726562 2.90625 C 27.746094 2.882812 27.800781 2.847656 27.875 2.808594 C 27.949219 2.769531 28.039062 2.730469 28.132812 2.691406 C 28.3125 2.617188 28.5 2.5625 28.542969 2.574219 C 28.4375 2.636719 28.332031 2.707031 28.230469 2.773438 C 28.347656 2.757812 28.445312 2.71875 28.539062 2.675781 C 28.632812 2.632812 28.722656 2.578125 28.8125 2.527344 C 28.902344 2.472656 29 2.433594 29.109375 2.398438 C 29.164062 2.382812 29.222656 2.371094 29.289062 2.367188 C 29.351562 2.359375 29.417969 2.363281 29.492188 2.367188 C 29.539062 2.363281 29.605469 2.367188 29.671875 2.375 C 29.738281 2.382812 29.808594 2.394531 29.875 2.410156 C 30.003906 2.433594 30.113281 2.441406 30.117188 2.382812 C 29.769531 2.222656 29.558594 1.558594 29.746094 1.355469 C 29.78125 1.355469 30.054688 1.355469 30.347656 1.375 C 30.421875 1.378906 30.496094 1.382812 30.566406 1.390625 C 30.640625 1.398438 30.710938 1.40625 30.777344 1.414062 C 30.90625 1.429688 31.011719 1.449219 31.074219 1.46875 C 31.25 1.535156 31.136719 1.652344 31.023438 1.769531 C 30.90625 1.886719 30.792969 2.003906 30.9375 2.058594 C 30.941406 2.007812 31.109375 1.914062 31.179688 1.886719 C 31.390625 1.90625 31.117188 2.058594 31.554688 1.984375 C 31.609375 1.777344 32.460938 1.917969 31.75 1.796875 C 31.859375 1.773438 31.941406 1.761719 32.011719 1.757812 C 32.085938 1.753906 32.148438 1.757812 32.207031 1.761719 C 32.335938 1.769531 32.472656 1.78125 32.726562 1.765625 C 32.644531 1.707031 32.753906 1.59375 32.945312 1.484375 C 33.039062 1.433594 33.15625 1.382812 33.273438 1.34375 C 33.335938 1.324219 33.394531 1.304688 33.457031 1.289062 C 33.515625 1.277344 33.574219 1.265625 33.628906 1.261719 C 33.605469 1.308594 33.703125 1.378906 33.753906 1.40625 C 33.808594 1.410156 33.863281 1.410156 33.917969 1.414062 C 33.972656 1.417969 34.023438 1.421875 34.074219 1.425781 C 34.175781 1.429688 34.273438 1.441406 34.367188 1.453125 C 34.554688 1.472656 34.730469 1.5 34.898438 1.523438 C 35.066406 1.550781 35.234375 1.574219 35.414062 1.601562 C 35.5 1.617188 35.59375 1.632812 35.691406 1.644531 C 35.738281 1.652344 35.789062 1.660156 35.835938 1.667969 C 35.886719 1.671875 35.9375 1.679688 35.984375 1.691406 C 36.023438 1.71875 36.136719 1.761719 36.222656 1.804688 C 36.304688 1.847656 36.355469 1.890625 36.265625 1.921875 C 36.390625 1.90625 36.511719 1.859375 36.769531 1.894531 C 37 2.027344 36.855469 2.007812 36.695312 1.988281 C 36.539062 1.976562 36.363281 1.960938 36.535156 2.09375 C 36.585938 1.984375 37.21875 2.054688 37.597656 2.066406 C 37.578125 2.015625 37.519531 1.980469 37.433594 1.949219 C 37.34375 1.917969 37.230469 1.898438 37.109375 1.886719 C 36.984375 1.875 36.851562 1.863281 36.726562 1.863281 C 36.601562 1.863281 36.484375 1.867188 36.390625 1.871094 C 36.40625 1.75 36.589844 1.648438 36.878906 1.59375 C 37.023438 1.566406 37.199219 1.546875 37.390625 1.542969 C 37.582031 1.539062 37.800781 1.546875 38.027344 1.574219 C 38.207031 1.597656 38.316406 1.628906 38.371094 1.65625 C 38.433594 1.683594 38.445312 1.710938 38.441406 1.730469 C 38.4375 1.773438 38.355469 1.796875 38.417969 1.796875 C 38.742188 1.890625 38.976562 1.945312 39.171875 1.964844 C 39.359375 1.988281 39.507812 1.984375 39.644531 1.984375 C 39.785156 1.984375 39.914062 1.984375 40.074219 2.019531 C 40.15625 2.035156 40.238281 2.066406 40.335938 2.105469 C 40.382812 2.128906 40.4375 2.152344 40.492188 2.175781 C 40.546875 2.203125 40.605469 2.234375 40.667969 2.273438 C 40.84375 2.433594 40.816406 2.507812 40.757812 2.558594 C 40.695312 2.609375 40.597656 2.640625 40.621094 2.710938 C 40.546875 2.691406 40.484375 2.667969 40.425781 2.644531 C 40.363281 2.625 40.304688 2.601562 40.253906 2.578125 C 40.144531 2.53125 40.054688 2.480469 39.960938 2.429688 C 39.875 2.382812 39.789062 2.335938 39.707031 2.292969 C 39.664062 2.273438 39.621094 2.246094 39.578125 2.230469 C 39.535156 2.214844 39.492188 2.199219 39.445312 2.179688 C 39.589844 2.25 39.734375 2.332031 39.878906 2.410156 C 39.785156 2.402344 39.640625 2.375 39.496094 2.339844 C 39.355469 2.304688 39.214844 2.257812 39.121094 2.203125 C 39.199219 2.269531 39.371094 2.339844 39.59375 2.429688 C 39.710938 2.476562 39.835938 2.523438 39.972656 2.574219 C 40.105469 2.628906 40.253906 2.683594 40.402344 2.742188 C 40.550781 2.804688 40.707031 2.867188 40.859375 2.933594 C 40.933594 2.96875 41.011719 3.003906 41.085938 3.039062 C 41.160156 3.070312 41.234375 3.105469 41.308594 3.144531 C 41.382812 3.183594 41.453125 3.21875 41.523438 3.257812 C 41.59375 3.292969 41.660156 3.332031 41.722656 3.367188 C 41.851562 3.445312 41.976562 3.515625 42.082031 3.589844 C 42.265625 3.625 42.570312 3.726562 42.46875 3.601562 L 42.171875 3.472656 C 42.066406 3.347656 42.222656 3.378906 42.363281 3.414062 C 42.507812 3.449219 42.632812 3.484375 42.460938 3.359375 C 42.511719 3.378906 42.570312 3.390625 42.625 3.40625 C 42.679688 3.425781 42.734375 3.441406 42.796875 3.460938 C 42.910156 3.5 43.03125 3.535156 43.152344 3.585938 C 43.273438 3.636719 43.394531 3.691406 43.519531 3.761719 C 43.640625 3.832031 43.765625 3.914062 43.890625 4.011719 L 43.890625 4.226562 C 43.910156 4.175781 43.605469 3.917969 43.425781 3.875 C 43.492188 3.890625 43.566406 3.945312 43.648438 4.015625 C 43.730469 4.085938 43.820312 4.171875 43.90625 4.253906 C 44 4.339844 44.089844 4.414062 44.179688 4.472656 C 44.273438 4.53125 44.367188 4.566406 44.457031 4.558594 C 44.359375 4.441406 44.265625 4.324219 44.164062 4.210938 C 44.273438 4.25 44.382812 4.296875 44.5 4.34375 C 44.617188 4.390625 44.742188 4.4375 44.863281 4.492188 C 44.988281 4.550781 45.109375 4.613281 45.230469 4.6875 C 45.347656 4.761719 45.457031 4.847656 45.558594 4.945312 C 45.511719 4.796875 45.480469 4.777344 45.441406 4.753906 C 45.402344 4.722656 45.351562 4.679688 45.25 4.476562 C 45.3125 4.679688 45.023438 4.464844 44.753906 4.269531 C 44.617188 4.175781 44.484375 4.082031 44.40625 4.050781 C 44.324219 4.015625 44.300781 4.042969 44.378906 4.175781 C 44.328125 4.066406 44.269531 3.984375 44.203125 3.910156 C 44.136719 3.839844 44.070312 3.777344 43.992188 3.71875 C 43.835938 3.597656 43.671875 3.476562 43.492188 3.25 C 43.484375 3.28125 43.511719 3.328125 43.492188 3.335938 C 43.480469 3.339844 43.457031 3.332031 43.414062 3.308594 C 43.367188 3.285156 43.300781 3.242188 43.203125 3.179688 C 43.175781 3.183594 43.121094 3.179688 43.085938 3.171875 C 43.074219 3.164062 43.070312 3.160156 43.058594 3.152344 C 43.066406 3.160156 43.074219 3.164062 43.078125 3.171875 C 43.054688 3.167969 43.054688 3.171875 43.085938 3.179688 C 43.171875 3.257812 43.238281 3.328125 43.25 3.375 C 43.183594 3.375 43.09375 3.351562 42.988281 3.316406 C 42.9375 3.300781 42.882812 3.28125 42.828125 3.257812 C 42.773438 3.234375 42.714844 3.210938 42.65625 3.1875 C 42.539062 3.140625 42.425781 3.089844 42.324219 3.046875 C 42.222656 3.007812 42.132812 2.980469 42.066406 2.96875 C 41.832031 2.820312 42.203125 2.957031 42.09375 2.835938 L 41.710938 2.765625 C 41.722656 2.699219 41.578125 2.570312 41.507812 2.488281 C 41.472656 2.445312 41.457031 2.414062 41.488281 2.40625 C 41.523438 2.394531 41.601562 2.414062 41.761719 2.464844 C 41.582031 2.378906 41.402344 2.296875 41.21875 2.21875 C 41.144531 2.164062 41.0625 2.113281 40.976562 2.066406 C 40.890625 2.015625 40.796875 1.96875 40.703125 1.929688 C 40.519531 1.847656 40.332031 1.78125 40.179688 1.757812 C 40.054688 1.695312 39.871094 1.667969 39.757812 1.660156 C 39.640625 1.648438 39.589844 1.652344 39.726562 1.644531 C 39.574219 1.609375 39.417969 1.574219 39.269531 1.539062 L 38.808594 1.445312 L 38.808594 1.410156 C 38.367188 1.28125 37.894531 1.21875 37.40625 1.144531 C 36.921875 1.074219 36.425781 0.992188 35.917969 0.808594 C 35.765625 0.808594 35.601562 0.808594 35.421875 0.800781 C 35.328125 0.796875 35.230469 0.789062 35.125 0.777344 C 35.070312 0.773438 35.011719 0.769531 34.953125 0.757812 C 34.898438 0.753906 34.832031 0.746094 34.769531 0.734375 L 34.675781 0.617188 C 34.472656 0.621094 34.175781 0.585938 33.902344 0.558594 C 33.628906 0.539062 33.386719 0.523438 33.300781 0.585938 C 33.085938 0.4375 32.589844 0.421875 32.066406 0.476562 C 31.546875 0.527344 30.996094 0.632812 30.640625 0.660156 L 30.636719 0.8125 C 30.152344 0.875 29.703125 0.996094 29.132812 1.183594 L 29.195312 1.300781 C 29.074219 1.351562 28.9375 1.394531 28.78125 1.429688 C 28.625 1.464844 28.457031 1.5 28.273438 1.527344 C 28.230469 1.535156 28.183594 1.546875 28.136719 1.550781 C 28.085938 1.5625 28.039062 1.570312 27.992188 1.578125 C 27.898438 1.597656 27.800781 1.617188 27.707031 1.636719 C 27.609375 1.65625 27.511719 1.683594 27.417969 1.710938 C 27.320312 1.738281 27.222656 1.765625 27.128906 1.800781 C 27.164062 1.734375 27.363281 1.683594 27.511719 1.667969 C 27.382812 1.667969 27.257812 1.683594 27.136719 1.710938 C 27.015625 1.738281 26.894531 1.773438 26.777344 1.816406 C 26.660156 1.863281 26.542969 1.914062 26.429688 1.972656 C 26.316406 2.027344 26.203125 2.089844 26.09375 2.152344 C 25.871094 2.273438 25.660156 2.40625 25.445312 2.511719 C 25.234375 2.628906 25.019531 2.714844 24.800781 2.765625 C 24.625 2.902344 24.476562 2.964844 24.324219 3.007812 C 24.339844 2.996094 24.359375 2.988281 24.367188 2.976562 C 24.347656 2.988281 24.316406 3 24.285156 3.019531 C 24.238281 3.03125 24.1875 3.042969 24.136719 3.054688 C 24.089844 3.066406 24.039062 3.085938 23.984375 3.101562 C 24.082031 3.085938 24.167969 3.066406 24.242188 3.042969 C 24.167969 3.082031 24.078125 3.140625 23.980469 3.203125 C 23.882812 3.265625 23.777344 3.335938 23.675781 3.417969 L 23.511719 3.351562 C 23.496094 3.363281 23.480469 3.371094 23.464844 3.382812 C 23.222656 3.464844 23.328125 3.542969 23.496094 3.566406 C 23.398438 3.648438 23.3125 3.734375 23.253906 3.8125 C 23.109375 3.765625 22.980469 3.871094 22.84375 3.980469 C 22.777344 4.03125 22.707031 4.089844 22.632812 4.125 C 22.558594 4.167969 22.476562 4.191406 22.386719 4.179688 C 22.371094 4.226562 22.296875 4.300781 22.199219 4.390625 C 22.105469 4.480469 21.988281 4.585938 21.875 4.6875 C 21.761719 4.796875 21.65625 4.910156 21.578125 5.011719 C 21.5 5.113281 21.457031 5.207031 21.46875 5.277344 C 21.441406 5.257812 21.375 5.289062 21.480469 5.207031 C 21.242188 5.355469 21.015625 5.511719 20.871094 5.726562 L 20.664062 5.667969 L 20.515625 5.957031 L 20.375 6.25 C 20.203125 6.335938 20.082031 6.394531 20.019531 6.390625 C 19.960938 6.382812 19.964844 6.308594 20.046875 6.132812 C 19.921875 6.324219 19.835938 6.457031 19.761719 6.558594 C 19.691406 6.65625 19.640625 6.726562 19.589844 6.789062 C 19.539062 6.851562 19.492188 6.917969 19.4375 7.003906 C 19.382812 7.09375 19.3125 7.210938 19.230469 7.378906 L 19.167969 7.277344 C 19.082031 7.378906 18.992188 7.535156 18.910156 7.671875 C 18.824219 7.8125 18.742188 7.933594 18.652344 7.964844 C 18.582031 8.003906 18.503906 8.074219 18.410156 8.160156 C 18.363281 8.203125 18.316406 8.25 18.265625 8.304688 C 18.214844 8.359375 18.164062 8.417969 18.109375 8.484375 C 18.054688 8.546875 18 8.613281 17.945312 8.683594 C 17.890625 8.753906 17.832031 8.832031 17.773438 8.910156 C 17.742188 8.949219 17.710938 8.988281 17.683594 9.027344 C 17.652344 9.066406 17.621094 9.113281 17.59375 9.152344 C 17.535156 9.234375 17.472656 9.324219 17.414062 9.410156 C 17.171875 9.765625 16.921875 10.152344 16.683594 10.535156 C 16.5625 10.726562 16.445312 10.917969 16.332031 11.097656 C 16.273438 11.1875 16.214844 11.28125 16.160156 11.363281 C 16.101562 11.449219 16.046875 11.535156 15.996094 11.617188 C 16.214844 11.558594 16.097656 11.699219 15.957031 11.882812 C 15.886719 11.972656 15.8125 12.074219 15.765625 12.164062 C 15.71875 12.25 15.707031 12.328125 15.761719 12.367188 C 15.652344 12.417969 15.523438 12.601562 15.558594 12.339844 C 15.527344 12.4375 15.496094 12.523438 15.460938 12.605469 C 15.429688 12.6875 15.398438 12.765625 15.363281 12.839844 C 15.332031 12.910156 15.300781 12.980469 15.269531 13.042969 C 15.238281 13.109375 15.210938 13.171875 15.183594 13.230469 C 15.15625 13.292969 15.128906 13.351562 15.109375 13.414062 C 15.085938 13.472656 15.0625 13.535156 15.050781 13.59375 C 15.019531 13.71875 15.003906 13.851562 15.015625 13.996094 C 14.90625 14.054688 14.960938 13.796875 14.886719 13.859375 C 14.878906 13.925781 14.871094 14.121094 14.800781 14.183594 C 14.730469 14.246094 14.773438 14.050781 14.78125 13.917969 C 14.71875 14.113281 14.691406 14.269531 14.675781 14.394531 C 14.671875 14.523438 14.679688 14.617188 14.707031 14.695312 C 14.757812 14.84375 14.867188 14.910156 14.964844 14.96875 C 14.859375 15.152344 14.796875 15.292969 14.769531 15.425781 C 14.746094 15.566406 14.757812 15.691406 14.796875 15.855469 C 14.746094 15.914062 14.6875 16 14.652344 16.003906 C 14.621094 16.011719 14.601562 15.941406 14.648438 15.695312 C 14.640625 15.730469 14.625 15.78125 14.605469 15.84375 C 14.585938 15.90625 14.566406 15.984375 14.546875 16.070312 C 14.523438 16.152344 14.5 16.246094 14.472656 16.339844 C 14.453125 16.4375 14.429688 16.535156 14.410156 16.632812 C 14.371094 16.828125 14.347656 17.019531 14.335938 17.160156 C 14.328125 17.304688 14.34375 17.402344 14.390625 17.417969 C 14.332031 17.496094 14.320312 17.804688 14.335938 17.878906 C 14.316406 18.03125 14.300781 18.152344 14.285156 18.253906 C 14.273438 18.355469 14.261719 18.441406 14.253906 18.527344 C 14.246094 18.609375 14.238281 18.695312 14.230469 18.796875 C 14.226562 18.894531 14.222656 19.015625 14.214844 19.167969 L 14.253906 19 C 14.359375 19.128906 14.363281 19.253906 14.347656 19.414062 C 14.328125 19.570312 14.28125 19.757812 14.296875 20.007812 L 14.273438 19.996094 C 14.226562 20.277344 14.214844 20.453125 14.214844 20.570312 C 14.214844 20.6875 14.222656 20.746094 14.234375 20.808594 C 14.246094 20.867188 14.253906 20.929688 14.253906 21.042969 C 14.253906 21.101562 14.253906 21.171875 14.242188 21.265625 C 14.234375 21.359375 14.230469 21.46875 14.210938 21.613281 L 14.347656 21.542969 C 14.425781 21.566406 14.453125 21.636719 14.460938 21.746094 C 14.472656 21.855469 14.453125 21.996094 14.433594 22.15625 C 14.417969 22.316406 14.398438 22.496094 14.394531 22.675781 C 14.394531 22.851562 14.410156 23.03125 14.460938 23.183594 C 14.472656 23.105469 14.492188 23.023438 14.507812 22.9375 C 14.582031 23.109375 14.523438 23.367188 14.445312 23.632812 C 14.375 23.898438 14.285156 24.171875 14.304688 24.355469 C 14.300781 24.4375 14.238281 24.238281 14.199219 24.136719 C 14.210938 24.625 14.265625 24.644531 14.335938 24.625 C 14.40625 24.609375 14.5 24.558594 14.601562 24.894531 C 14.570312 24.96875 14.5 24.945312 14.449219 24.960938 C 14.421875 24.964844 14.402344 24.984375 14.394531 25.027344 C 14.386719 25.070312 14.390625 25.144531 14.417969 25.261719 C 14.414062 25.324219 14.453125 25.4375 14.515625 25.574219 C 14.578125 25.714844 14.667969 25.882812 14.757812 26.0625 C 14.804688 26.152344 14.851562 26.242188 14.894531 26.335938 C 14.917969 26.382812 14.941406 26.429688 14.960938 26.480469 C 14.980469 26.527344 15 26.574219 15.019531 26.621094 C 15.058594 26.714844 15.089844 26.808594 15.113281 26.898438 C 15.140625 26.988281 15.160156 27.078125 15.164062 27.160156 C 15.1875 27 15.207031 26.839844 15.378906 27.128906 C 15.40625 27.183594 15.425781 27.25 15.445312 27.320312 C 15.46875 27.386719 15.488281 27.460938 15.503906 27.539062 C 15.527344 27.613281 15.542969 27.695312 15.5625 27.777344 C 15.582031 27.855469 15.605469 27.9375 15.628906 28.019531 C 15.652344 28.097656 15.675781 28.179688 15.703125 28.257812 C 15.730469 28.335938 15.765625 28.40625 15.800781 28.476562 C 15.832031 28.542969 15.871094 28.605469 15.914062 28.660156 C 15.957031 28.714844 16.003906 28.761719 16.054688 28.796875 C 16.066406 28.863281 16.058594 28.894531 16.042969 28.90625 C 16.070312 28.945312 16.101562 28.992188 16.136719 29.042969 C 16.167969 29.09375 16.207031 29.148438 16.246094 29.207031 C 16.324219 29.320312 16.410156 29.449219 16.492188 29.566406 C 16.660156 29.804688 16.839844 30.019531 16.953125 30.082031 C 16.894531 30.21875 16.957031 30.40625 17.078125 30.613281 C 17.203125 30.816406 17.386719 31.039062 17.566406 31.25 C 17.660156 31.351562 17.75 31.449219 17.835938 31.542969 C 17.917969 31.636719 17.988281 31.726562 18.046875 31.804688 C 18.160156 31.957031 18.207031 32.082031 18.117188 32.144531 C 18.179688 32.222656 18.242188 32.296875 18.304688 32.371094 C 18.371094 32.445312 18.429688 32.523438 18.496094 32.597656 C 18.628906 32.742188 18.757812 32.890625 18.890625 33.035156 L 18.839844 33.042969 C 19.320312 33.628906 19.589844 33.738281 19.847656 33.851562 C 19.949219 33.992188 19.832031 33.933594 19.804688 33.941406 C 19.894531 34.042969 19.976562 34.136719 20.050781 34.21875 C 20.125 34.300781 20.191406 34.371094 20.257812 34.433594 C 20.382812 34.5625 20.492188 34.660156 20.605469 34.742188 C 20.660156 34.789062 20.714844 34.828125 20.777344 34.863281 C 20.835938 34.902344 20.902344 34.9375 20.972656 34.980469 C 21.042969 35.015625 21.117188 35.058594 21.203125 35.101562 C 21.292969 35.140625 21.386719 35.1875 21.488281 35.238281 L 21.472656 35.410156 C 21.539062 35.429688 21.636719 35.511719 21.769531 35.632812 C 21.832031 35.691406 21.910156 35.757812 21.992188 35.832031 C 22.03125 35.871094 22.078125 35.90625 22.121094 35.945312 C 22.164062 35.988281 22.210938 36.027344 22.257812 36.066406 C 22.640625 36.398438 23.132812 36.757812 23.648438 36.957031 C 23.628906 36.96875 23.597656 36.980469 23.511719 36.957031 C 23.582031 36.984375 23.652344 37.019531 23.722656 37.054688 C 23.796875 37.089844 23.867188 37.125 23.941406 37.164062 C 24.011719 37.203125 24.085938 37.246094 24.15625 37.289062 C 24.230469 37.328125 24.300781 37.371094 24.371094 37.414062 C 24.441406 37.460938 24.515625 37.507812 24.585938 37.550781 C 24.65625 37.59375 24.730469 37.636719 24.800781 37.679688 C 24.875 37.726562 24.945312 37.773438 25.015625 37.8125 C 25.085938 37.851562 25.15625 37.898438 25.222656 37.9375 C 25.363281 38.019531 25.496094 38.089844 25.628906 38.152344 C 25.691406 38.183594 25.757812 38.210938 25.816406 38.234375 C 25.878906 38.257812 25.9375 38.28125 26 38.300781 C 26.117188 38.332031 26.222656 38.355469 26.320312 38.355469 C 26.417969 38.355469 26.507812 38.339844 26.585938 38.296875 L 26.984375 38.375 C 27.113281 38.398438 27.246094 38.425781 27.378906 38.441406 C 27.257812 38.398438 27.175781 38.355469 27.113281 38.328125 C 27.054688 38.296875 27.019531 38.273438 27.007812 38.253906 C 26.976562 38.214844 27.023438 38.203125 27.085938 38.1875 C 27.214844 38.167969 27.414062 38.164062 27.230469 38.054688 C 27.277344 38.066406 27.328125 38.085938 27.378906 38.105469 C 27.429688 38.125 27.480469 38.144531 27.53125 38.167969 C 27.628906 38.214844 27.71875 38.265625 27.78125 38.3125 C 27.84375 38.355469 27.882812 38.394531 27.871094 38.414062 C 27.863281 38.433594 27.808594 38.433594 27.6875 38.402344 L 27.621094 38.355469 C 27.558594 38.402344 27.597656 38.460938 27.695312 38.519531 C 27.792969 38.574219 27.949219 38.628906 28.113281 38.6875 C 28.273438 38.738281 28.441406 38.789062 28.5625 38.835938 C 28.625 38.859375 28.675781 38.882812 28.707031 38.902344 C 28.742188 38.925781 28.753906 38.945312 28.75 38.964844 C 29.242188 39.085938 29.738281 39.195312 30.230469 39.292969 C 30.355469 39.316406 30.476562 39.34375 30.601562 39.363281 C 30.726562 39.382812 30.847656 39.40625 30.972656 39.425781 C 31.097656 39.445312 31.21875 39.460938 31.34375 39.484375 C 31.402344 39.492188 31.46875 39.503906 31.527344 39.511719 C 31.589844 39.515625 31.652344 39.527344 31.714844 39.535156 C 31.773438 39.539062 31.839844 39.550781 31.898438 39.558594 C 31.960938 39.5625 32.023438 39.574219 32.085938 39.578125 C 32.207031 39.589844 32.332031 39.601562 32.453125 39.613281 C 32.574219 39.625 32.699219 39.632812 32.820312 39.640625 C 32.878906 39.644531 32.941406 39.652344 33.003906 39.65625 C 33.066406 39.65625 33.125 39.660156 33.1875 39.660156 C 33.675781 39.6875 34.160156 39.683594 34.640625 39.65625 C 34.5625 39.589844 34.488281 39.527344 34.410156 39.460938 C 34.519531 39.460938 34.632812 39.449219 34.738281 39.445312 C 34.851562 39.4375 34.960938 39.4375 35.070312 39.429688 C 35.15625 39.445312 35.222656 39.484375 35.199219 39.519531 C 35.191406 39.535156 35.160156 39.558594 35.101562 39.570312 C 35.046875 39.585938 34.960938 39.601562 34.839844 39.605469 C 34.972656 39.65625 35.167969 39.613281 35.335938 39.554688 C 35.375 39.535156 35.417969 39.523438 35.453125 39.507812 C 35.492188 39.488281 35.519531 39.472656 35.546875 39.457031 C 35.601562 39.425781 35.636719 39.398438 35.640625 39.386719 C 35.871094 39.382812 35.96875 39.394531 35.984375 39.417969 C 36.003906 39.445312 35.941406 39.484375 35.859375 39.515625 C 35.691406 39.585938 35.445312 39.65625 35.589844 39.644531 L 35.976562 39.582031 L 35.886719 39.570312 C 36.035156 39.511719 36.113281 39.449219 36.230469 39.402344 C 36.285156 39.378906 36.351562 39.355469 36.433594 39.335938 C 36.519531 39.3125 36.625 39.292969 36.769531 39.269531 C 36.949219 39.265625 37 39.285156 37.023438 39.308594 C 37.046875 39.332031 37.042969 39.359375 37.113281 39.347656 C 37.117188 39.363281 37.164062 39.363281 37.332031 39.3125 C 37.605469 39.261719 37.882812 39.207031 38.160156 39.144531 C 38.035156 39.117188 37.914062 39.089844 37.792969 39.058594 C 37.964844 38.976562 38.15625 38.933594 38.25 38.898438 C 38.296875 38.882812 38.320312 38.863281 38.308594 38.847656 C 38.292969 38.832031 38.242188 38.8125 38.136719 38.789062 C 38.171875 38.800781 38.21875 38.808594 38.269531 38.808594 C 38.320312 38.808594 38.382812 38.808594 38.441406 38.800781 C 38.566406 38.789062 38.714844 38.769531 38.875 38.734375 C 39.03125 38.699219 39.207031 38.660156 39.382812 38.605469 C 39.46875 38.578125 39.5625 38.550781 39.648438 38.523438 C 39.738281 38.496094 39.828125 38.464844 39.914062 38.433594 C 40.273438 38.308594 40.613281 38.167969 40.890625 38.054688 C 41.027344 37.996094 41.144531 37.945312 41.242188 37.90625 C 41.339844 37.871094 41.414062 37.84375 41.457031 37.835938 C 41.5625 37.753906 41.671875 37.679688 41.78125 37.609375 C 41.894531 37.535156 42.007812 37.464844 42.125 37.398438 C 42.363281 37.265625 42.617188 37.136719 42.898438 36.984375 C 42.820312 37.007812 42.738281 36.988281 42.734375 36.933594 C 42.734375 36.910156 42.753906 36.871094 42.804688 36.828125 C 42.828125 36.804688 42.859375 36.78125 42.902344 36.753906 C 42.941406 36.726562 42.992188 36.695312 43.050781 36.667969 C 43.058594 36.773438 43.121094 36.808594 43.21875 36.792969 C 43.316406 36.78125 43.449219 36.722656 43.597656 36.644531 C 43.671875 36.609375 43.75 36.570312 43.832031 36.527344 C 43.910156 36.488281 43.988281 36.445312 44.070312 36.40625 C 44.148438 36.371094 44.226562 36.339844 44.300781 36.3125 C 44.375 36.289062 44.445312 36.273438 44.515625 36.269531 C 44.40625 36.285156 44.429688 36.238281 44.519531 36.160156 C 44.5625 36.117188 44.621094 36.070312 44.6875 36.019531 C 44.75 35.964844 44.824219 35.90625 44.894531 35.851562 C 45.035156 35.734375 45.164062 35.617188 45.222656 35.542969 C 45.277344 35.464844 45.257812 35.433594 45.09375 35.472656 C 45.28125 35.347656 45.3125 35.371094 45.332031 35.414062 C 45.355469 35.449219 45.371094 35.507812 45.535156 35.433594 C 45.917969 35.035156 46.386719 34.664062 46.875 34.253906 C 47.359375 33.84375 47.855469 33.390625 48.277344 32.859375 C 48.25 32.808594 48.050781 32.929688 48.175781 32.660156 C 48.394531 32.535156 48.613281 32.40625 48.828125 32.269531 C 48.898438 32.15625 48.878906 32.0625 48.894531 31.960938 C 48.902344 31.910156 48.917969 31.859375 48.960938 31.804688 C 49.003906 31.746094 49.070312 31.683594 49.179688 31.609375 C 49.105469 31.640625 48.988281 31.683594 49.082031 31.535156 C 49.519531 31.039062 49.898438 30.488281 50.234375 29.90625 C 50.574219 29.324219 50.867188 28.71875 51.128906 28.09375 C 51.394531 27.472656 51.632812 26.839844 51.867188 26.207031 C 52.101562 25.570312 52.335938 24.9375 52.589844 24.300781 C 52.414062 24.636719 52.457031 24.394531 52.511719 24.121094 C 52.449219 24.292969 52.390625 24.09375 52.3125 24.113281 C 52.378906 23.9375 52.445312 23.757812 52.511719 23.582031 L 52.605469 23.3125 C 52.636719 23.222656 52.667969 23.132812 52.695312 23.042969 C 52.65625 22.988281 52.644531 22.882812 52.648438 22.757812 C 52.648438 22.726562 52.652344 22.695312 52.65625 22.660156 C 52.660156 22.625 52.660156 22.59375 52.664062 22.554688 C 52.667969 22.484375 52.675781 22.414062 52.683594 22.339844 C 52.6875 22.269531 52.699219 22.195312 52.703125 22.128906 C 52.707031 22.0625 52.710938 22 52.710938 21.941406 C 52.707031 21.828125 52.691406 21.742188 52.648438 21.710938 L 52.652344 22.0625 C 52.566406 21.816406 52.429688 21.972656 52.28125 22.167969 C 52.128906 22.367188 51.964844 22.601562 51.828125 22.554688 C 51.875 22.6875 51.859375 22.832031 51.824219 22.988281 C 51.78125 23.148438 51.707031 23.316406 51.640625 23.492188 C 51.605469 23.578125 51.566406 23.667969 51.535156 23.761719 C 51.519531 23.808594 51.507812 23.855469 51.492188 23.902344 C 51.480469 23.949219 51.464844 24 51.453125 24.046875 C 51.429688 24.144531 51.414062 24.246094 51.410156 24.351562 C 51.402344 24.457031 51.40625 24.5625 51.425781 24.671875 C 51.328125 24.839844 51.375 24.503906 51.289062 24.578125 C 51.324219 24.695312 51.335938 24.816406 51.308594 24.960938 C 51.292969 25.035156 51.273438 25.117188 51.246094 25.203125 C 51.21875 25.296875 51.179688 25.390625 51.136719 25.5 L 51.121094 25.441406 C 51.097656 25.519531 51.078125 25.59375 51.058594 25.667969 C 51.035156 25.742188 51.011719 25.8125 50.992188 25.878906 C 50.96875 25.949219 50.945312 26.015625 50.921875 26.078125 C 50.902344 26.140625 50.875 26.207031 50.851562 26.265625 C 50.828125 26.328125 50.804688 26.386719 50.78125 26.445312 C 50.757812 26.503906 50.734375 26.558594 50.707031 26.617188 C 50.65625 26.726562 50.605469 26.839844 50.554688 26.949219 C 50.339844 27.390625 50.097656 27.835938 49.730469 28.472656 L 49.902344 28.4375 C 49.824219 28.574219 49.765625 28.652344 49.714844 28.710938 C 49.664062 28.769531 49.621094 28.808594 49.574219 28.863281 C 49.578125 29.074219 49.6875 28.882812 49.796875 28.683594 C 49.855469 28.585938 49.90625 28.480469 49.953125 28.429688 C 49.996094 28.382812 50.035156 28.382812 50.046875 28.480469 C 49.832031 28.605469 49.570312 29.101562 49.285156 29.5625 C 49.007812 30.023438 48.703125 30.453125 48.492188 30.476562 C 48.210938 30.875 48.703125 30.453125 48.421875 30.847656 L 48.277344 30.902344 L 48.296875 31.066406 C 48.246094 31.128906 48.195312 31.175781 48.148438 31.21875 C 48.101562 31.257812 48.054688 31.285156 48.015625 31.308594 C 47.933594 31.347656 47.875 31.355469 47.839844 31.339844 C 47.894531 31.28125 47.957031 31.152344 48.003906 31.082031 C 47.917969 31.152344 47.835938 31.242188 47.757812 31.34375 C 47.675781 31.441406 47.59375 31.550781 47.519531 31.660156 C 47.445312 31.761719 47.378906 31.859375 47.320312 31.9375 C 47.265625 32.015625 47.21875 32.070312 47.191406 32.09375 C 47.304688 31.984375 47.417969 31.878906 47.53125 31.773438 C 47.144531 32.308594 46.632812 32.839844 46.113281 33.347656 C 46.046875 33.414062 45.980469 33.476562 45.914062 33.539062 C 45.84375 33.601562 45.78125 33.660156 45.71875 33.726562 C 45.648438 33.785156 45.585938 33.847656 45.519531 33.90625 C 45.453125 33.96875 45.390625 34.027344 45.324219 34.089844 C 45.191406 34.207031 45.066406 34.328125 44.941406 34.445312 C 44.882812 34.5 44.820312 34.5625 44.761719 34.621094 C 44.699219 34.675781 44.644531 34.734375 44.585938 34.789062 L 44.703125 34.785156 C 44.617188 34.871094 44.539062 34.941406 44.46875 35.003906 C 44.398438 35.058594 44.335938 35.109375 44.28125 35.152344 C 44.226562 35.191406 44.175781 35.222656 44.128906 35.25 C 44.078125 35.277344 44.03125 35.304688 43.984375 35.328125 C 43.796875 35.425781 43.597656 35.527344 43.15625 35.835938 L 43.179688 35.800781 C 43.105469 35.886719 43.011719 35.976562 42.902344 36.058594 C 42.847656 36.097656 42.785156 36.136719 42.726562 36.179688 C 42.695312 36.199219 42.664062 36.21875 42.632812 36.234375 C 42.601562 36.253906 42.566406 36.273438 42.535156 36.289062 C 42.632812 36.1875 42.503906 36.21875 42.382812 36.246094 C 42.261719 36.269531 42.148438 36.285156 42.285156 36.164062 C 42.230469 36.207031 42.183594 36.238281 42.136719 36.273438 C 42.09375 36.304688 42.050781 36.332031 42.015625 36.355469 C 41.941406 36.40625 41.886719 36.453125 41.84375 36.484375 C 41.753906 36.554688 41.710938 36.589844 41.679688 36.628906 C 41.652344 36.667969 41.632812 36.699219 41.589844 36.761719 C 41.546875 36.816406 41.480469 36.90625 41.339844 37.03125 L 41.144531 37.003906 C 41.058594 37.101562 41.011719 37.15625 40.925781 37.222656 C 40.839844 37.292969 40.71875 37.367188 40.472656 37.484375 C 40.660156 37.355469 40.566406 37.351562 40.472656 37.339844 C 40.382812 37.328125 40.300781 37.308594 40.503906 37.160156 C 40.363281 37.1875 40.234375 37.222656 40.113281 37.253906 C 39.996094 37.289062 39.886719 37.328125 39.785156 37.367188 C 39.683594 37.410156 39.589844 37.449219 39.5 37.492188 C 39.414062 37.535156 39.332031 37.578125 39.253906 37.613281 C 39.175781 37.652344 39.101562 37.6875 39.03125 37.71875 C 38.960938 37.75 38.890625 37.777344 38.824219 37.789062 C 38.683594 37.824219 38.546875 37.824219 38.402344 37.777344 C 38.296875 37.882812 38.304688 37.929688 38.375 37.945312 C 38.410156 37.949219 38.460938 37.945312 38.515625 37.941406 C 38.574219 37.929688 38.636719 37.917969 38.707031 37.898438 C 38.773438 37.882812 38.839844 37.863281 38.902344 37.847656 C 38.964844 37.828125 39.019531 37.808594 39.0625 37.796875 C 39.148438 37.769531 39.191406 37.757812 39.125 37.800781 C 39.253906 37.808594 39.171875 37.894531 39.003906 37.988281 C 38.925781 38.035156 38.820312 38.082031 38.714844 38.121094 C 38.664062 38.140625 38.609375 38.160156 38.558594 38.175781 C 38.511719 38.1875 38.460938 38.203125 38.414062 38.210938 C 38.328125 38.234375 38.238281 38.230469 38.144531 38.21875 C 38.046875 38.210938 37.945312 38.183594 37.824219 38.164062 C 37.761719 38.15625 37.699219 38.148438 37.628906 38.140625 C 37.5625 38.136719 37.484375 38.132812 37.40625 38.132812 C 37.328125 38.132812 37.238281 38.136719 37.144531 38.144531 C 37.050781 38.15625 36.949219 38.167969 36.839844 38.1875 C 36.925781 38.171875 36.929688 38.148438 37.015625 38.136719 C 36.84375 38.128906 36.6875 38.1875 36.515625 38.234375 C 36.429688 38.257812 36.34375 38.28125 36.25 38.292969 C 36.15625 38.304688 36.058594 38.304688 35.949219 38.289062 C 35.898438 38.34375 35.835938 38.375 35.777344 38.390625 C 35.714844 38.40625 35.652344 38.417969 35.597656 38.425781 C 35.484375 38.441406 35.394531 38.460938 35.371094 38.578125 L 35.789062 38.503906 L 36.199219 38.421875 C 36.082031 38.449219 35.972656 38.496094 35.855469 38.546875 C 35.738281 38.59375 35.617188 38.640625 35.488281 38.6875 C 35.355469 38.734375 35.214844 38.765625 35.054688 38.789062 C 34.894531 38.8125 34.714844 38.8125 34.515625 38.792969 C 34.578125 38.742188 34.808594 38.667969 34.960938 38.621094 C 34.84375 38.597656 34.734375 38.617188 34.625 38.632812 C 34.511719 38.648438 34.402344 38.667969 34.28125 38.640625 C 34.292969 38.578125 34.367188 38.546875 34.46875 38.523438 C 34.574219 38.5 34.714844 38.484375 34.867188 38.472656 C 35.019531 38.453125 35.1875 38.4375 35.347656 38.414062 C 35.503906 38.382812 35.65625 38.347656 35.773438 38.285156 C 35.710938 38.269531 35.621094 38.277344 35.527344 38.296875 C 35.433594 38.3125 35.332031 38.34375 35.246094 38.359375 C 35.074219 38.398438 34.957031 38.410156 35.074219 38.277344 C 34.90625 38.449219 34.683594 38.453125 34.425781 38.449219 C 34.296875 38.449219 34.164062 38.441406 34.023438 38.449219 C 33.949219 38.457031 33.878906 38.464844 33.804688 38.480469 C 33.730469 38.496094 33.65625 38.519531 33.582031 38.546875 L 33.621094 38.410156 C 33.523438 38.433594 33.324219 38.5 33.144531 38.492188 L 33.46875 38.316406 C 33.34375 38.355469 33.222656 38.363281 33.105469 38.355469 C 32.984375 38.355469 32.871094 38.328125 32.75 38.304688 C 32.695312 38.289062 32.636719 38.277344 32.574219 38.265625 C 32.519531 38.253906 32.460938 38.238281 32.402344 38.230469 C 32.289062 38.210938 32.171875 38.199219 32.054688 38.210938 C 32.546875 38.242188 32.601562 38.285156 32.578125 38.339844 C 32.5625 38.394531 32.46875 38.457031 32.675781 38.515625 C 32.523438 38.535156 32.394531 38.535156 32.289062 38.53125 C 32.183594 38.527344 32.097656 38.519531 32.027344 38.5 C 31.882812 38.460938 31.792969 38.402344 31.703125 38.34375 C 31.613281 38.28125 31.515625 38.214844 31.359375 38.160156 C 31.203125 38.105469 30.984375 38.050781 30.648438 38.015625 C 30.738281 38.023438 30.90625 38.066406 31.015625 38.113281 C 31.125 38.160156 31.175781 38.207031 31.027344 38.21875 C 30.960938 38.203125 30.894531 38.1875 30.824219 38.164062 C 30.753906 38.144531 30.6875 38.125 30.617188 38.101562 C 30.488281 38.054688 30.367188 38 30.292969 37.953125 C 29.851562 37.886719 29.878906 37.925781 29.96875 37.988281 C 30.058594 38.046875 30.210938 38.128906 30.011719 38.132812 C 29.878906 38.019531 29.761719 38.015625 29.632812 38.035156 C 29.570312 38.042969 29.5 38.058594 29.421875 38.066406 C 29.382812 38.074219 29.339844 38.078125 29.296875 38.078125 C 29.253906 38.078125 29.207031 38.078125 29.15625 38.070312 L 29.1875 37.933594 C 29.0625 37.894531 28.964844 37.863281 28.886719 37.847656 C 28.808594 37.824219 28.75 37.820312 28.703125 37.816406 C 28.613281 37.8125 28.574219 37.839844 28.535156 37.867188 C 28.5 37.894531 28.464844 37.921875 28.386719 37.921875 C 28.308594 37.917969 28.183594 37.882812 27.964844 37.789062 L 28.402344 37.714844 C 28.242188 37.683594 28.082031 37.65625 27.917969 37.625 C 27.964844 37.582031 28.011719 37.542969 28.0625 37.503906 C 27.925781 37.492188 27.816406 37.476562 27.71875 37.460938 C 27.671875 37.449219 27.625 37.441406 27.582031 37.429688 C 27.539062 37.417969 27.5 37.40625 27.457031 37.390625 C 27.375 37.367188 27.296875 37.332031 27.207031 37.292969 C 27.121094 37.253906 27.023438 37.207031 26.910156 37.148438 C 26.945312 37.21875 26.910156 37.269531 26.808594 37.289062 C 26.703125 37.304688 26.539062 37.28125 26.320312 37.195312 C 26.257812 37.148438 26.238281 37.117188 26.238281 37.101562 C 26.238281 37.082031 26.25 37.074219 26.257812 37.066406 C 26.269531 37.050781 26.234375 37.027344 25.929688 36.90625 C 26.015625 36.894531 26.105469 36.882812 26.199219 36.898438 C 26.246094 36.910156 26.296875 36.921875 26.347656 36.953125 C 26.394531 36.980469 26.445312 37.019531 26.5 37.078125 C 26.542969 37.046875 26.667969 37.050781 26.714844 37.019531 C 26.574219 36.910156 26.382812 36.832031 26.199219 36.753906 C 26.109375 36.714844 26.019531 36.6875 25.9375 36.65625 C 25.855469 36.625 25.785156 36.597656 25.734375 36.570312 C 25.816406 36.617188 25.90625 36.667969 25.953125 36.710938 C 25.796875 36.671875 25.640625 36.636719 25.488281 36.597656 C 25.332031 36.558594 25.175781 36.519531 25.019531 36.476562 C 24.914062 36.355469 25.039062 36.378906 25.160156 36.394531 C 25.070312 36.355469 24.992188 36.335938 24.898438 36.308594 C 24.808594 36.28125 24.707031 36.253906 24.582031 36.1875 C 24.703125 36.125 24.742188 36.019531 25.117188 36.152344 C 24.972656 36.101562 24.832031 36.054688 24.695312 35.996094 C 24.554688 35.945312 24.414062 35.890625 24.277344 35.832031 C 24.261719 35.796875 24.183594 35.707031 24.121094 35.632812 C 24.058594 35.558594 24.015625 35.492188 24.078125 35.507812 C 23.984375 35.425781 23.867188 35.359375 23.730469 35.296875 C 23.597656 35.226562 23.453125 35.167969 23.304688 35.097656 C 23.011719 34.957031 22.699219 34.800781 22.46875 34.566406 C 22.425781 34.5625 22.359375 34.539062 22.238281 34.464844 C 22.121094 34.363281 22.011719 34.257812 21.90625 34.15625 C 21.804688 34.046875 21.699219 33.941406 21.589844 33.835938 C 21.484375 33.730469 21.367188 33.625 21.242188 33.519531 C 21.179688 33.464844 21.117188 33.417969 21.046875 33.367188 C 21.011719 33.339844 20.972656 33.316406 20.9375 33.292969 C 20.902344 33.269531 20.863281 33.242188 20.824219 33.21875 L 20.707031 32.890625 L 20.675781 32.78125 C 20.460938 32.597656 20.507812 32.738281 20.527344 32.851562 C 20.542969 32.964844 20.523438 33.050781 20.164062 32.730469 C 19.90625 32.503906 19.894531 32.429688 19.933594 32.382812 C 19.96875 32.332031 20.058594 32.320312 20 32.210938 C 19.925781 32.167969 19.835938 32.117188 19.738281 32.050781 C 19.640625 31.988281 19.539062 31.914062 19.433594 31.828125 C 19.230469 31.652344 19.03125 31.417969 18.914062 31.121094 C 18.988281 31.191406 19.046875 31.261719 19.101562 31.332031 C 19.160156 31.445312 19.210938 31.515625 19.277344 31.585938 Z M 15.933594 25.402344 C 15.96875 25.464844 16.023438 25.554688 16.070312 25.644531 C 16.117188 25.734375 16.144531 25.820312 16.121094 25.878906 C 16.019531 25.828125 15.980469 25.769531 15.960938 25.695312 C 15.941406 25.613281 15.945312 25.519531 15.933594 25.402344 Z M 15.707031 14.679688 C 15.722656 14.796875 15.652344 14.941406 15.550781 15.101562 C 15.578125 14.96875 15.625 14.828125 15.707031 14.679688 Z M 40.75 2.128906 C 40.742188 2.128906 40.742188 2.128906 40.734375 2.128906 C 40.664062 2.085938 40.617188 2.058594 40.589844 2.042969 C 40.5625 2.027344 40.550781 2.023438 40.5625 2.027344 C 40.574219 2.03125 40.648438 2.074219 40.75 2.128906 Z M 41.355469 2.449219 C 41.429688 2.460938 41.429688 2.441406 41.414062 2.410156 C 41.355469 2.421875 41.214844 2.363281 41.058594 2.285156 C 41.085938 2.339844 41.160156 2.398438 41.355469 2.449219 Z M 37.167969 39.308594 L 37.03125 39.296875 C 37.316406 39.199219 37.242188 39.25 37.167969 39.308594 Z M 37.167969 39.308594 " fill-opacity="1" fill-rule="nonzero"/></g><path fill="#000000" d="M 15.5625 15.925781 C 15.527344 15.957031 15.503906 15.960938 15.476562 15.964844 C 15.484375 16.023438 15.511719 16.027344 15.5625 15.925781 Z M 15.5625 15.925781 " fill-opacity="1" fill-rule="nonzero"/><path fill="#000000" d="M 22.457031 34.589844 C 22.460938 34.597656 22.46875 34.597656 22.472656 34.601562 C 22.488281 34.601562 22.496094 34.597656 22.507812 34.597656 Z M 22.457031 34.589844 " fill-opacity="1" fill-rule="nonzero"/><path fill="#000000" d="M 31.183594 2.113281 C 31.117188 2.109375 31.066406 2.105469 31.023438 2.101562 C 30.980469 2.09375 30.949219 2.085938 30.921875 2.078125 C 30.921875 2.09375 30.933594 2.105469 30.976562 2.113281 C 31.015625 2.121094 31.082031 2.121094 31.183594 2.113281 Z M 31.183594 2.113281 " fill-opacity="1" fill-rule="nonzero"/><path fill="#000000" d="M 44.640625 4.011719 C 44.511719 3.9375 44.382812 3.867188 44.25 3.796875 C 44.433594 3.910156 44.480469 3.976562 44.554688 4.054688 C 44.570312 4.023438 44.523438 3.933594 44.640625 4.011719 Z M 44.640625 4.011719 " fill-opacity="1" fill-rule="nonzero"/><path fill="#000000" d="M 46.949219 7.078125 C 47 7.113281 47.039062 7.167969 47.097656 7.203125 L 47.128906 7.144531 C 46.945312 6.960938 46.777344 6.867188 46.949219 7.078125 Z M 46.949219 7.078125 " fill-opacity="1" fill-rule="nonzero"/><path fill="#000000" d="M 44.703125 4.625 C 44.683594 4.679688 44.734375 4.742188 44.816406 4.808594 C 44.863281 4.84375 44.914062 4.875 44.972656 4.914062 C 45.03125 4.949219 45.089844 4.992188 45.15625 5.03125 C 45.140625 5.019531 45.125 5.011719 45.109375 4.996094 C 45.195312 4.960938 45.167969 4.902344 45.082031 4.835938 C 44.992188 4.769531 44.847656 4.699219 44.703125 4.625 Z M 44.703125 4.625 " fill-opacity="1" fill-rule="nonzero"/><path fill="#000000" d="M 45.210938 5.070312 C 45.289062 5.125 45.367188 5.179688 45.433594 5.238281 C 45.5 5.210938 45.355469 5.15625 45.210938 5.070312 Z M 45.210938 5.070312 " fill-opacity="1" fill-rule="nonzero"/><path fill="#000000" d="M 42.171875 2.75 C 42.289062 2.839844 42.320312 2.65625 42.375 2.734375 C 42.484375 2.707031 42.242188 2.636719 42.070312 2.609375 C 41.988281 2.597656 41.917969 2.601562 41.917969 2.617188 C 41.921875 2.636719 41.988281 2.675781 42.171875 2.75 Z M 42.171875 2.75 " fill-opacity="1" fill-rule="nonzero"/><path fill="#000000" d="M 44.667969 5.082031 L 44.667969 4.898438 L 44.464844 4.898438 Z M 44.667969 5.082031 " fill-opacity="1" fill-rule="nonzero"/><path fill="#000000" d="M 42.757812 3.71875 C 42.824219 3.765625 42.890625 3.808594 42.953125 3.855469 L 43.148438 3.992188 C 43.15625 3.96875 43.214844 3.984375 43.285156 4.015625 C 43.160156 3.9375 43.03125 3.855469 42.933594 3.792969 C 42.832031 3.734375 42.765625 3.699219 42.757812 3.71875 Z M 42.757812 3.71875 " fill-opacity="1" fill-rule="nonzero"/><path fill="#000000" d="M 43.285156 4.015625 C 43.414062 4.097656 43.539062 4.175781 43.621094 4.199219 C 43.554688 4.152344 43.398438 4.0625 43.285156 4.015625 Z M 43.285156 4.015625 " fill-opacity="1" fill-rule="nonzero"/><path fill="#000000" d="M 44.117188 4.742188 C 44.082031 4.707031 44.054688 4.671875 44.019531 4.636719 L 43.746094 4.445312 L 44.027344 4.667969 Z M 44.117188 4.742188 " fill-opacity="1" fill-rule="nonzero"/><path fill="#000000" d="M 38.023438 1.820312 L 37.769531 1.78125 C 37.679688 1.765625 37.597656 1.757812 37.507812 1.746094 C 37.449219 1.785156 37.578125 1.84375 37.773438 1.867188 C 37.898438 1.859375 38.089844 1.886719 38.023438 1.820312 Z M 38.023438 1.820312 " fill-opacity="1" fill-rule="nonzero"/><path fill="#000000" d="M 39.40625 2.632812 C 39.285156 2.5625 39.285156 2.53125 39.226562 2.460938 L 39.15625 2.628906 Z M 39.40625 2.632812 " fill-opacity="1" fill-rule="nonzero"/><path fill="#000000" d="M 37.972656 2.261719 C 37.941406 2.277344 37.75 2.273438 37.652344 2.273438 C 37.550781 2.28125 37.535156 2.296875 37.847656 2.367188 C 37.875 2.347656 38.019531 2.359375 38.09375 2.355469 C 38.136719 2.355469 38.15625 2.347656 38.144531 2.335938 C 38.136719 2.328125 38.117188 2.320312 38.09375 2.304688 C 38.070312 2.296875 38.027344 2.28125 37.972656 2.261719 Z M 37.972656 2.261719 " fill-opacity="1" fill-rule="nonzero"/><path fill="#000000" d="M 30.335938 1.738281 L 30.464844 1.714844 L 30.398438 1.425781 Z M 30.335938 1.738281 " fill-opacity="1" fill-rule="nonzero"/><path fill="#000000" d="M 24.308594 4.65625 C 24.378906 4.628906 24.429688 4.605469 24.46875 4.582031 C 24.507812 4.558594 24.535156 4.539062 24.554688 4.523438 C 24.589844 4.488281 24.59375 4.464844 24.59375 4.4375 C 24.597656 4.386719 24.59375 4.339844 24.847656 4.246094 C 24.894531 4.183594 24.789062 4.21875 24.683594 4.257812 C 24.578125 4.296875 24.480469 4.335938 24.527344 4.273438 C 24.457031 4.335938 24.394531 4.382812 24.339844 4.421875 C 24.289062 4.464844 24.25 4.496094 24.222656 4.523438 C 24.175781 4.582031 24.1875 4.613281 24.308594 4.65625 Z M 24.308594 4.65625 " fill-opacity="1" fill-rule="nonzero"/><path fill="#000000" d="M 24.527344 4.269531 C 24.570312 4.234375 24.617188 4.191406 24.664062 4.144531 C 24.582031 4.210938 24.546875 4.246094 24.527344 4.269531 Z M 24.527344 4.269531 " fill-opacity="1" fill-rule="nonzero"/><path fill="#000000" d="M 52.949219 22.339844 C 52.984375 22.210938 53.015625 22.074219 53.050781 21.941406 L 52.929688 22.191406 C 52.933594 22.242188 52.941406 22.289062 52.949219 22.339844 Z M 52.949219 22.339844 " fill-opacity="1" fill-rule="nonzero"/><path fill="#000000" d="M 52.796875 21.546875 L 52.992188 21.464844 L 52.835938 21.210938 C 52.835938 21.300781 52.84375 21.480469 52.796875 21.546875 Z M 52.796875 21.546875 " fill-opacity="1" fill-rule="nonzero"/><path fill="#000000" d="M 16.035156 24.296875 L 15.984375 24.28125 C 15.949219 24.347656 15.96875 24.433594 16 24.605469 Z M 16.035156 24.296875 " fill-opacity="1" fill-rule="nonzero"/><path fill="#000000" d="M 17.734375 29.042969 L 17.695312 28.964844 L 17.625 29.195312 Z M 17.734375 29.042969 " fill-opacity="1" fill-rule="nonzero"/><path fill="#000000" d="M 20.40625 32.332031 C 20.351562 32.261719 20.28125 32.203125 20.210938 32.140625 C 20.140625 32.074219 20.074219 32.007812 20.019531 31.941406 C 20.289062 32.203125 20.285156 32.507812 20.40625 32.332031 Z M 20.40625 32.332031 " fill-opacity="1" fill-rule="nonzero"/><g clip-path="url(#87d47c8153)"><path fill="#000000" d="M 65.691406 16.316406 C 63.914062 16.316406 64.117188 18.246094 58.574219 18.246094 C 53.640625 18.246094 47.800781 17.402344 43.386719 17.402344 C 40.867188 17.402344 38.609375 18.449219 36.714844 20.015625 C 36.5 17.851562 36.164062 16.574219 36.136719 16.484375 C 36.09375 16.355469 35.828125 15.457031 35.210938 15.457031 C 34.851562 15.457031 34.394531 16.144531 33.925781 17.054688 C 33.757812 16.597656 33.375 16.003906 32.535156 16.003906 C 31.46875 16.003906 30.582031 16.566406 30.074219 17.648438 C 29.117188 18.367188 27.511719 19.074219 24.691406 19.074219 C 19.449219 19.074219 11.042969 17.433594 6.792969 17.433594 C 3.808594 17.433594 0.726562 17.867188 0.726562 19.617188 C 0.726562 20.148438 1.148438 20.429688 1.660156 20.429688 C 3.4375 20.429688 3.238281 18.5 8.78125 18.5 C 13.714844 18.5 19.550781 19.773438 23.964844 19.773438 C 26.707031 19.773438 28.558594 19.222656 29.765625 18.550781 C 29.65625 19.019531 29.597656 19.554688 29.597656 20.144531 C 29.597656 21.65625 30.207031 22.753906 31.265625 22.753906 C 32.78125 22.753906 34.390625 16.746094 34.664062 16.746094 C 34.785156 16.746094 34.949219 19.183594 34.980469 21.691406 C 32.238281 24.78125 30.613281 28.84375 30.613281 31.457031 C 30.613281 32.941406 31.386719 33.777344 32.15625 33.777344 C 35.003906 33.777344 36.898438 28.117188 36.898438 23.734375 C 36.898438 22.730469 36.863281 21.808594 36.800781 20.988281 C 38.691406 19.257812 40.882812 18.097656 42.988281 18.097656 C 48.230469 18.097656 56.3125 19.304688 60.5625 19.304688 C 63.546875 19.304688 66.628906 18.871094 66.628906 17.121094 C 66.625 16.597656 66.203125 16.316406 65.691406 16.316406 Z M 31.707031 21.394531 C 31.519531 21.394531 31.410156 21.191406 31.410156 20.804688 C 31.410156 18.65625 32.28125 17.257812 32.945312 17.257812 C 33.320312 17.257812 33.53125 17.4375 33.652344 17.613281 C 32.839844 19.308594 32.039062 21.394531 31.707031 21.394531 Z M 32.039062 32.269531 C 31.871094 32.269531 31.644531 31.800781 31.644531 31.007812 C 31.644531 28.488281 32.992188 25.445312 34.980469 22.949219 C 34.90625 26.984375 33.539062 32.269531 32.039062 32.269531 Z M 32.039062 32.269531 " fill-opacity="1" fill-rule="nonzero"/></g></svg>